<?xml version="1.0" encoding="UTF-8"?>
<svg width="24px" height="24px" viewBox="0 0 24 24" version="1.1" xmlns="http://www.w3.org/2000/svg">
    <g stroke="none" stroke-width="1" fill="none" fill-rule="evenodd">
        <path d="M12,15 C13.6568542,15 15,13.6568542 15,12 C15,10.3431458 13.6568542,9 12,9 C10.3431458,9 9,10.3431458 9,12 C9,13.6568542 10.3431458,15 12,15 Z M12,16 C9.790861,16 8,14.209139 8,12 C8,9.790861 9.790861,8 12,8 C14.209139,8 16,9.790861 16,12 C16,14.209139 14.209139,16 12,16 Z" fill="#1E40AF" fill-rule="nonzero"/>
        <path d="M13.5,4.20710678 L13.5,6 C13.5,6.27614237 13.7238576,6.5 14,6.5 L15.7928932,6.5 C16.0690356,6.5 16.2928932,6.27614237 16.2928932,6 C16.2928932,5.86192881 16.2366579,5.72962981 16.1363961,5.62936802 L14.3435029,3.83647485 C14.1482912,3.64126313 13.8517088,3.64126313 13.6564971,3.83647485 L11.8636039,5.62936802 C11.6683922,5.82457974 11.6683922,6.12116215 11.8636039,6.31637387 C11.9638657,6.41663566 12.0961647,6.47287089 12.2342359,6.47287089 L14.0271291,6.47287089 C14.3032715,6.47287089 14.5271291,6.24901326 14.5271291,5.97287089 L14.5271291,4.20710678 C14.5271291,3.93096441 14.3032715,3.70710678 14.0271291,3.70710678 C13.7509867,3.70710678 13.5,3.93096441 13.5,4.20710678 Z" fill="#1E40AF" fill-rule="nonzero" transform="translate(14.000000, 5.000000) rotate(-315.000000) translate(-14.000000, -5.000000)"/>
        <path d="M19.7928932,13.5 L18,13.5 C17.7238576,13.5 17.5,13.7238576 17.5,14 L17.5,15.7928932 C17.5,16.0690356 17.7238576,16.2928932 18,16.2928932 C18.1380712,16.2928932 18.2703702,16.2366579 18.370632,16.1363961 L20.1635252,14.3435029 C20.3587369,14.1482912 20.3587369,13.8517088 20.1635252,13.6564971 L18.370632,11.8636039 C18.1754203,11.6683922 17.8788379,11.6683922 17.6836262,11.8636039 C17.5833643,11.9638657 17.5271291,12.0961647 17.5271291,12.2342359 L17.5271291,14.0271291 C17.5271291,14.3032715 17.7509867,14.5271291 18.0271291,14.5271291 L19.7928932,14.5271291 C20.0690356,14.5271291 20.2928932,14.3032715 20.2928932,14.0271291 C20.2928932,13.7509867 20.0690356,13.5 19.7928932,13.5 Z" fill="#1E40AF" fill-rule="nonzero" transform="translate(19.000000, 14.000000) rotate(-315.000000) translate(-19.000000, -14.000000)"/>
        <path d="M10.5,17.7928932 L10.5,16 C10.5,15.7238576 10.2761424,15.5 10,15.5 L8.20710678,15.5 C7.93096441,15.5 7.70710678,15.7238576 7.70710678,16 C7.70710678,16.1380712 7.76334201,16.2703702 7.8635838,16.370632 L9.65647697,18.1635252 C9.85168869,18.3587369 10.1482711,18.3587369 10.3434828,18.1635252 L12.1363761,16.370632 C12.3315878,16.1754203 12.3315878,15.8788379 12.1363761,15.6836262 C12.0361143,15.5833643 11.9038153,15.5271291 11.7657441,15.5271291 L9.97285089,15.5271291 C9.69670852,15.5271291 9.47285089,15.7509867 9.47285089,16.0271291 L9.47285089,17.7928932 C9.47285089,18.0690356 9.69670852,18.2928932 9.97285089,18.2928932 C10.2489933,18.2928932 10.5,18.0690356 10.5,17.7928932 Z" fill="#1E40AF" fill-rule="nonzero" transform="translate(10.000000, 17.000000) rotate(-315.000000) translate(-10.000000, -17.000000)"/>
        <path d="M4.20710678,10.5 L6,10.5 C6.27614237,10.5 6.5,10.2761424 6.5,10 L6.5,8.20710678 C6.5,7.93096441 6.27614237,7.70710678 6,7.70710678 C5.86192881,7.70710678 5.72962981,7.76334201 5.62936802,7.8635838 L3.83647485,9.65647697 C3.64126313,9.85168869 3.64126313,10.1482711 3.83647485,10.3434828 L5.62936802,12.1363761 C5.82457974,12.3315878 6.12116215,12.3315878 6.31637387,12.1363761 C6.41663566,12.0361143 6.47287089,11.9038153 6.47287089,11.7657441 L6.47287089,9.97285089 C6.47287089,9.69670852 6.24901326,9.47285089 5.97287089,9.47285089 L4.20710678,9.47285089 C3.93096441,9.47285089 3.70710678,9.69670852 3.70710678,9.97285089 C3.70710678,10.2489933 3.93096441,10.5 4.20710678,10.5 Z" fill="#1E40AF" fill-rule="nonzero" transform="translate(5.000000, 10.000000) rotate(-315.000000) translate(-5.000000, -10.000000)"/>
    </g>
</svg> 